<svg width="32" height="32" viewBox="0 0 32 32" fill="none" xmlns="http://www.w3.org/2000/svg">
<path d="M27.4375 15.1255L6.32499 3.30047C6.14716 3.20223 5.94361 3.16048 5.74146 3.18079C5.5393 3.2011 5.34813 3.28251 5.19339 3.41417C5.03866 3.54584 4.92769 3.72151 4.87528 3.9178C4.82287 4.1141 4.83149 4.3217 4.89999 4.51297L8.87499 15.663C8.96256 15.8795 8.96256 16.1215 8.87499 16.338L4.89999 27.488C4.83149 27.6792 4.82287 27.8868 4.87528 28.0831C4.92769 28.2794 5.03866 28.4551 5.19339 28.5868C5.34813 28.7184 5.5393 28.7998 5.74146 28.8202C5.94361 28.8405 6.14716 28.7987 6.32499 28.7005L27.4375 16.8755C27.5938 16.789 27.7241 16.6622 27.8148 16.5084C27.9055 16.3545 27.9534 16.1791 27.9534 16.0005C27.9534 15.8218 27.9055 15.6465 27.8148 15.4926C27.7241 15.3387 27.5938 15.212 27.4375 15.1255V15.1255Z" stroke="#C00000" stroke-width="2" stroke-linecap="round" stroke-linejoin="round"/>
<path d="M9 16H17" stroke="#C00000" stroke-width="2" stroke-linecap="round" stroke-linejoin="round"/>
</svg>
